<svg width="800" height="800" viewBox="0 0 800 800" fill="none" xmlns="http://www.w3.org/2000/svg">
<path fill-rule="evenodd" clip-rule="evenodd" d="M155.644 284.004V452.083H182.833V378.175H212.742C229.567 378.175 235.729 388.063 239.435 399.926L256.49 452.33H286.892L268.358 398.948C262.493 382.555 248.673 373.299 235.129 368.562C256.935 364.379 276.265 351.053 276.265 327.009C276.265 301.795 255.254 284 225.595 284L174.925 284.004H155.644ZM182.833 307.238V356.667H220.65C229.301 356.667 248.336 347.277 248.336 328.496C248.336 315.642 239.932 307.238 225.595 307.238H182.833ZM294.266 477.53C296.113 477.53 297.561 476.182 297.561 474.284C297.561 472.386 296.113 471.038 294.266 471.038C292.418 471.038 290.97 472.386 290.97 474.284C290.97 476.182 292.418 477.53 294.266 477.53ZM291.519 506.694H296.912V481.125H291.519V506.694ZM160.948 484.921C162.646 482.624 165.293 480.826 169.238 480.826C176.229 480.826 181.323 485.67 181.323 493.91C181.323 501.75 176.229 506.993 169.238 506.993C165.243 506.993 162.496 505.295 160.898 502.998L160.249 506.694H155.555V471.737H160.948V484.921ZM160.898 493.86C160.898 498.903 163.844 502.449 168.339 502.449C172.833 502.449 175.83 498.953 175.83 493.91C175.83 488.916 172.833 485.42 168.339 485.42C163.844 485.42 160.898 488.916 160.898 493.86ZM190.866 509.34L191.865 506.844L181.927 481.125H187.67L194.811 500.551L201.752 481.125H207.495L195.91 510.689C194.312 514.834 193.213 516.681 189.468 516.681H183.675V511.937H187.47C189.568 511.937 190.067 511.438 190.866 509.34ZM228.893 506.694H234.736L240.329 489.315L245.722 506.694H251.515L260.004 481.125H254.511L248.469 500.701L242.876 481.125H237.932L232.089 500.701L226.246 481.125H220.553L228.893 506.694ZM268.237 484.821C269.835 482.624 272.282 480.826 276.277 480.826C281.97 480.826 286.614 483.922 286.614 492.461V506.694H281.221V492.911C281.221 488.067 279.073 485.47 275.078 485.47C270.834 485.47 268.237 488.616 268.237 493.76V506.694H262.844V471.737H268.237V484.821ZM311.038 506.694C306.144 506.694 304.047 504.397 304.047 499.752V485.87H299.602V481.125H304.047V473.984H309.49V481.125H315.732V485.87H309.49V499.203C309.49 501.201 310.189 501.95 312.237 501.95H316.032V506.694H311.038ZM331.061 506.993C337.403 506.993 341.698 503.148 342.597 498.104H337.204C336.455 500.951 334.058 502.599 330.762 502.599C326.517 502.599 323.77 499.752 323.621 495.408V495.058H342.897C342.996 494.359 343.046 493.66 343.046 493.011C342.897 485.52 337.953 480.826 330.562 480.826C323.021 480.826 317.978 486.069 317.978 493.96C317.978 501.8 323.021 506.993 331.061 506.993ZM323.82 491.113C324.22 487.468 327.166 485.17 330.612 485.17C334.357 485.17 337.004 487.318 337.453 491.113H323.82ZM369.13 500.352C369.13 501.65 369.679 502 370.778 502H371.876V506.694H369.03C365.534 506.694 364.336 505.146 364.336 502.599C362.638 505.196 360.041 506.993 355.896 506.993C350.303 506.993 346.408 504.247 346.408 499.503C346.408 494.259 350.203 491.313 357.344 491.313H363.786V489.765C363.786 486.918 361.739 485.17 358.193 485.17C354.997 485.17 352.85 486.669 352.45 488.916H347.157C347.706 483.922 352.001 480.826 358.443 480.826C365.235 480.826 369.13 484.072 369.13 490.114V500.352ZM356.645 502.799C361.14 502.799 363.736 500.152 363.786 496.207V495.308H357.095C353.749 495.308 351.901 496.556 351.901 499.153C351.901 501.3 353.699 502.799 356.645 502.799ZM379.926 506.694H385.769L391.362 489.315L396.756 506.694H402.548L411.038 481.125H405.545L399.502 500.701L393.909 481.125H388.965L383.123 500.701L377.28 481.125H371.587L379.926 506.694ZM434.527 500.352C434.527 501.65 435.076 502 436.175 502H437.274V506.694H434.427C430.932 506.694 429.733 505.146 429.733 502.599C428.035 505.196 425.438 506.993 421.294 506.993C415.7 506.993 411.805 504.247 411.805 499.503C411.805 494.259 415.601 491.313 422.742 491.313H429.184V489.765C429.184 486.918 427.136 485.17 423.591 485.17C420.395 485.17 418.247 486.669 417.848 488.916H412.554C413.104 483.922 417.398 480.826 423.84 480.826C430.632 480.826 434.527 484.072 434.527 490.114V500.352ZM422.043 502.799C426.537 502.799 429.134 500.152 429.184 496.207V495.308H422.492C419.146 495.308 417.298 496.556 417.298 499.153C417.298 501.3 419.096 502.799 422.043 502.799ZM446.529 506.844L445.531 509.34C444.732 511.438 444.232 511.937 442.135 511.937H438.34V516.681H444.132C447.878 516.681 448.976 514.834 450.574 510.689L462.16 481.125H456.417L449.476 500.551L442.335 481.125H436.592L446.529 506.844ZM322.939 396.609C324.474 418.492 335.553 432.677 356.369 432.677C377.38 432.677 385.287 418.094 386.77 410.926H412.986C410.247 425.262 396.423 454.428 356.642 454.428C321.299 454.428 296.085 431.194 296.085 391.895C296.085 351.593 322.782 327.628 357.386 327.628C392.992 327.628 415.717 352.842 415.717 386.209V396.609H390.726H388.007H322.939ZM324.144 376.815H387.444C385.84 367.4 379.663 349.657 355.875 349.657C335.783 349.657 327.174 362.398 324.144 376.815ZM494.827 352.648C477.028 352.648 462.199 363.275 462.199 388.981V452.759H436.253V330.153H458.501L461.467 348.692C467.645 340.287 479.755 328.424 499.53 328.424C516.586 328.424 547.977 336.331 547.977 381.32V453.248H522.024V390.711C522.016 365.747 514.351 352.648 494.827 352.648ZM563.373 351.499V329.979H585.37V296.612H611.335V329.979H640.246V351.499H611.335V416.005C611.335 425.888 616.054 428.858 622.706 428.858H643.47V452.334H616.281C597.731 452.334 585.37 444.673 585.37 422.425V351.499H563.373Z" fill="#EBF7EE"/>
</svg>
